<?xml version="1.0" encoding="UTF-8" standalone="no"?>
<svg
   xmlns:dc="http://purl.org/dc/elements/1.1/"
   xmlns:cc="http://creativecommons.org/ns#"
   xmlns:rdf="http://www.w3.org/1999/02/22-rdf-syntax-ns#"
   xmlns:svg="http://www.w3.org/2000/svg"
   xmlns="http://www.w3.org/2000/svg"
   xmlns:sodipodi="http://sodipodi.sourceforge.net/DTD/sodipodi-0.dtd"
   xmlns:inkscape="http://www.inkscape.org/namespaces/inkscape"
   width="195.54723mm"
   height="115.4934mm"
   viewBox="0 0 195.54723 115.4934"
   version="1.1"
   id="svg891"
   inkscape:version="1.0.2-2 (e86c870879, 2021-01-15)"
   sodipodi:docname="true.svg">
  <defs
     id="defs885" />
  <sodipodi:namedview
     id="base"
     pagecolor="#ffffff"
     bordercolor="#666666"
     borderopacity="1.0"
     inkscape:pageopacity="0.0"
     inkscape:pageshadow="2"
     inkscape:zoom="0.49497475"
     inkscape:cx="348.93912"
     inkscape:cy="583.09865"
     inkscape:document-units="mm"
     inkscape:current-layer="layer1"
     inkscape:document-rotation="0"
     showgrid="false"
     inkscape:window-width="1406"
     inkscape:window-height="960"
     inkscape:window-x="81"
     inkscape:window-y="0"
     inkscape:window-maximized="0" />
  <metadata
     id="metadata888">
    <rdf:RDF>
      <cc:Work
         rdf:about="">
        <dc:format>image/svg+xml</dc:format>
        <dc:type
           rdf:resource="http://purl.org/dc/dcmitype/StillImage" />
        <dc:title></dc:title>
      </cc:Work>
    </rdf:RDF>
  </metadata>
  <g
     inkscape:label="Livello 1"
     inkscape:groupmode="layer"
     id="layer1"
     transform="translate(-3.6844363,-27.822005)">
    <path
       style="fill:#f4d943;fill-opacity:1;stroke-width:0.264583"
       d="m 9.0912908,142.93027 c -0.322199,-0.38823 -3.9350445,-8.52474 -5.0753325,-11.43019 -0.587774,-1.49764 -0.398118,-2.18637 0.602067,-2.18637 0.62584,0 0.612601,-0.0235 2.6779545,4.74497 1.380167,3.18649 1.799174,3.94206 1.90745,3.43958 0.07632,-0.35416 0.332914,-1.95361 0.570219,-3.55434 2.9495412,-19.8959 11.2463902,-40.387144 23.1423552,-57.156124 1.927386,-2.71691 2.254044,-3.05652 2.871174,-2.985 1.289089,0.1494 1.015894,1.0071 -1.430621,4.49142 -10.279004,14.63934 -17.427609,30.920234 -21.124097,48.109984 -1.01645,4.72678 -2.112039,11.22225 -1.966497,11.65887 0.0497,0.1491 1.499613,-1.58221 3.222034,-3.84736 1.722422,-2.26515 3.330993,-4.22512 3.574606,-4.3555 0.571399,-0.3058 1.355307,0.12366 1.355307,0.74251 0,0.44684 -8.716007,12.12531 -9.352589,12.53142 -0.4425402,0.28232 -0.5974382,0.2499 -0.9740302,-0.20387 z m 67.4119252,-8.21088 c -0.39938,-0.21669 -0.99469,-0.89653 -1.32292,-1.51076 -0.52756,-0.98729 -0.59488,-1.48499 -0.58057,-4.2918 0.0177,-3.46254 0.43185,-5.33708 1.5539,-7.03261 0.3512,-0.53071 0.86042,-1.02294 1.1316,-1.09385 0.74639,-0.19519 1.64909,0.23654 1.90347,0.91034 0.30754,0.81462 -0.0867,1.47423 -0.94212,1.57614 -0.99969,0.11911 -1.44766,1.54683 -1.60938,5.12925 -0.10753,2.38179 -0.0513,3.0853 0.30093,3.76648 0.84162,1.6275 2.37999,1.2876 3.84072,-0.84859 0.87597,-1.28104 2.66823,-4.70446 2.66823,-5.09664 0,-0.54767 1.60929,-2.47681 2.62922,-3.15176 0.78639,-0.52041 1.37346,-0.68953 2.36688,-0.68184 1.66171,0.0129 2.72607,0.55596 3.47983,1.77557 1.71776,2.7794 -1.39417,8.31939 -4.67318,8.31939 -1.34465,0 -2.59587,-0.55098 -3.01047,-1.32566 -0.38806,-0.7251 -0.59673,-0.66415 -1.14157,0.33347 -0.55022,1.00746 -1.60045,2.2054 -2.66755,3.04271 -0.90005,0.70623 -2.79698,0.79325 -3.92702,0.18016 z m 11.96224,-4.77751 c 1.82645,-1.53685 2.48618,-4.43953 1.20049,-5.28195 -1.03916,-0.68088 -2.30611,-0.30425 -3.44251,1.02338 -0.69855,0.8161 -0.90369,1.25438 -0.76948,1.64397 0.10064,0.29217 0.19628,1.00377 0.21253,1.58133 0.0236,0.83849 0.16284,1.11762 0.691,1.38516 0.93392,0.47307 1.1755,0.43274 2.10797,-0.35189 z m 8.68441,-2.41411 c -0.22118,-0.25466 -1.07789,-1.69341 -1.9038,-3.19723 -0.82592,-1.50381 -1.7945,-3.19808 -2.15241,-3.76505 -0.77687,-1.23065 -0.82784,-1.98631 -0.15813,-2.34472 0.63769,-0.34128 1.08335,0.007 2.1058,1.64687 l 0.79168,1.26956 0.30957,-0.93801 c 0.17027,-0.5159 0.56508,-1.11697 0.87737,-1.3357 0.72446,-0.50744 2.31397,-0.51237 2.97916,-0.009 0.757404,0.57287 0.861354,0.51195 1.186424,-0.69527 0.38842,-1.44249 0.95601,-2.2784 1.86687,-2.74942 2.03517,-1.05243 3.8956,0.1935 5.27527,3.53285 0.46286,1.12031 1.01794,2.23675 1.2335,2.48098 0.45098,0.51095 0.26102,1.41411 -0.34646,1.64722 -0.91844,0.35244 -1.93629,-0.88101 -2.71412,-3.28902 -0.41309,-1.27885 -1.79927,-2.9203 -2.30294,-2.72702 -1.15617,0.44366 -1.49985,3.10091 -0.72072,5.57257 0.50027,1.58705 0.31273,2.25831 -0.67191,2.40494 -0.43633,0.065 -0.66225,-0.14475 -0.99763,-0.92604 -0.80614,-1.87801 -1.11796,-2.31724 -2.203164,-3.10336 -0.84332,-0.61089 -1.15274,-0.7138 -1.40069,-0.46585 -0.48519,0.48519 -0.39663,3.15657 0.1657,4.99818 0.41035,1.34388 0.44077,1.7195 0.16604,2.05052 -0.44093,0.5313 -0.89007,0.51257 -1.38541,-0.0578 z m 17.072574,-7.98866 c -1.53384,-0.69639 -2.04063,-1.74981 -2.00182,-4.16098 0.0322,-1.99948 0.41997,-3.08455 1.45793,-4.07952 1.0007,-0.95924 2.11273,-1.31193 3.19467,-1.01319 1.19362,0.32958 1.76344,1.12109 1.76344,2.44954 0,0.84437 -0.18561,1.21619 -1.02721,2.05779 -0.89661,0.89662 -1.18252,1.02721 -2.24895,1.02721 -1.04537,0 -1.22176,0.0764 -1.22176,0.52916 0,0.92231 0.93514,1.5875 2.23174,1.5875 1.49463,0 2.11614,-0.24362 3.69391,-1.44796 1.49327,-1.13983 2.54102,-1.14052 2.54102,-0.002 0,0.4976 -0.38982,0.94393 -1.60705,1.84 -2.44448,1.79952 -4.62352,2.18932 -6.77592,1.2121 z m 2.01457,-6.21311 c 0.6193,-0.65921 0.55486,-1.21021 -0.14153,-1.21021 -0.44835,0 -1.69215,1.15804 -1.69215,1.57548 0,0.52175 1.23067,0.27661 1.83368,-0.36527 z m -46.604854,3.19333 c -0.21197,-0.21197 -0.67291,-1.07688 -1.0243,-1.92202 -0.3514,-0.84514 -1.68879,-3.65222 -2.97198,-6.23795 -1.6327,-3.29003 -2.59576,-4.9211 -3.20813,-5.43339 -1.24482,-1.04138 -1.35981,-1.67213 -0.60412,-3.313766 0.81064,-1.760998 2.04998,-2.989378 3.89637,-3.861898 1.24709,-0.58932 1.8943,-0.70184 4.52551,-0.78678 3.30743,-0.10676 4.4116,0.1788 5.00926,1.29552 0.53093,0.99206 5e-5,1.944968 -3.08731,5.541644 -1.68462,1.96252 -3.29787,3.8476 -3.58501,4.18905 -0.33314,0.39616 -0.70618,0.57269 -1.03081,0.48779 -0.2798,-0.0732 -0.50873,-0.0939 -0.50873,-0.0461 0,0.0478 0.63857,1.43568 1.41905,3.08409 2.78306,5.87796 2.94718,6.29908 2.6431,6.78197 -0.37772,0.59981 -1.00102,0.69367 -1.4729,0.22179 z m -1.09944,-13.56288 c 0.8541,-1.0315 2.31276,-2.7477 3.24148,-3.813776 1.65986,-1.905348 1.67786,-1.942428 1.05833,-2.180608 -0.34663,-0.13326 -1.61437,-0.18452 -2.8172,-0.11392 -2.7018,0.15857 -4.76597,1.06189 -5.75606,2.518938 -0.36077,0.53091 -0.65594,1.115216 -0.65594,1.298456 0,0.18325 0.43262,0.89975 0.96137,1.59223 0.52876,0.69249 1.20926,1.76907 1.51224,2.3924 0.44306,0.91155 0.58531,1.04023 0.72687,0.65754 0.0968,-0.2617 0.87482,-1.31976 1.72891,-2.35126 z m 67.598794,9.02348 c -1.03299,-1.17652 -1.35959,-1.81608 -2.94003,-5.75737 -1.37434,-3.42731 -1.40086,-4.16094 -0.15041,-4.16094 0.64572,0 1.097,0.86077 2.77425,5.29167 0.95031,2.51047 1.02436,2.38227 0.98388,-1.70339 -0.0371,-3.73992 -0.015,-3.91358 0.55576,-4.37827 0.33223,-0.27049 0.82428,-0.42376 1.11572,-0.34755 0.62486,0.16341 0.97238,1.07447 0.56518,1.48168 -0.19001,0.19001 -0.29087,1.95147 -0.29087,5.07982 0,3.37197 -0.0939,4.8829 -0.3175,5.10646 -0.57667,0.57667 -1.45867,0.34153 -2.29598,-0.61211 z m 8.58162,-1.96285 c -1.5325,-0.31707 -2.26626,-1.29641 -2.25468,-3.00927 0.0171,-2.52689 0.59513,-4.43732 1.72029,-5.68557 1.82112,-2.020356 3.37495,-2.606606 4.97567,-1.877276 0.67362,0.30693 1.23224,1.242726 1.23224,2.064256 0,0.71638 -1.02908,1.8901 -2.0203,2.30426 -0.48021,0.20065 -1.45837,0.36481 -2.17367,0.36481 -1.47575,0 -1.61675,0.21013 -1.62325,2.41909 -0.004,1.40781 0.18734,1.55101 2.06855,1.54708 0.759,-0.002 1.78542,-0.25875 2.66263,-0.6671 1.70339,-0.79293 2.478,-0.67414 2.3582,0.36166 -0.17058,1.47485 -4.21487,2.74308 -6.94568,2.17806 z m 3.29227,-8.35233 c 0.27345,-0.32948 0.24261,-0.39688 -0.18161,-0.39688 -0.28105,0 -0.74211,0.17481 -1.02459,0.38847 -0.49379,0.37348 -0.48678,0.38878 0.18162,0.39687 0.38236,0.005 0.84343,-0.17018 1.02458,-0.38846 z m 10.01025,2.50479 c -0.24244,-0.14149 -0.73118,-0.76295 -1.08609,-1.38102 -0.35491,-0.61808 -1.07929,-1.83114 -1.60972,-2.69571 -1.0818,-1.763226 -1.14131,-2.049844 -0.54866,-2.642494 0.54716,-0.54716 0.78486,-0.52489 1.39565,0.13071 l 0.50913,0.54649 0.56908,-0.7992 c 0.75911,-1.06607 3.8689,-2.61612 4.4779,-2.23197 0.24072,0.15185 0.43767,0.55792 0.43767,0.90239 0,0.50092 -0.30213,0.77115 -1.50918,1.34983 -2.39769,1.149488 -2.99674,2.954674 -1.53353,4.621194 0.84386,0.96109 0.99349,1.63838 0.47625,2.15561 -0.37947,0.37948 -0.97538,0.39615 -1.5785,0.0442 z m 5.92363,-1.46146 c -0.81595,-0.57151 -0.80918,-2.35672 0.0136,-3.577596 0.77935,-1.156478 2.18754,-2.095938 3.14168,-2.095938 0.41504,0 0.75462,-0.0768 0.75462,-0.17069 0,-0.29146 -1.44478,-2.47417 -1.63803,-2.47467 -0.10055,-2.6e-4 -0.2564,0.11859 -0.34634,0.26411 -0.28207,0.4564 -1.42211,0.29164 -1.71048,-0.24719 -0.3891,-0.72704 -0.34494,-1.00468 0.25527,-1.6049 0.75218,-0.75217 2.14815,-0.69114 3.13229,0.13696 0.4354,0.36636 1.35741,1.63118 2.04892,2.8107 1.55906,2.659338 1.46498,2.948578 -1.02057,3.137758 -1.86488,0.14194 -3.10231,0.9011 -3.10231,1.903246 0,0.61331 0.80646,0.47627 2.95296,-0.50178 1.5225,-0.693726 2.22629,-0.679376 2.5066,0.0511 0.23333,0.60804 -0.38728,1.19302 -2.15226,2.0287 -1.82294,0.86311 -3.88249,1.00799 -4.83592,0.34018 z m -84.404714,-1.83883 c -1.22931,-0.53411 -1.75289,-1.886626 -1.52163,-3.930704 0.25635,-2.26577 0.82632,-3.46032 2.27074,-4.75898 2.92047,-2.62575 7.2657,-2.56636 7.18994,0.0983 -0.0623,2.19 -4.39868,6.079628 -6.77796,6.079628 -1.14058,0 -0.68334,0.61952 0.65216,0.88362 1.64822,0.32595 3.59377,-0.17637 5.52993,-1.427768 0.88785,-0.57384 1.77426,-1.04335 1.96982,-1.04335 0.54827,0 1.01139,0.71112 0.83175,1.27714 -0.1873,0.590108 -2.78176,2.259954 -4.3965,2.829664 -1.39809,0.49328 -4.60528,0.48909 -5.74825,-0.007 z m 2.2729,-4.998924 c 0.68927,-0.34928 1.84617,-1.27201 2.57089,-2.05052 l 1.31768,-1.41547 -0.84043,-0.0815 c -1.61952,-0.15697 -4.08344,1.64504 -4.57027,3.34252 -0.29285,1.02109 -0.13139,1.04282 1.52213,0.20493 z m 97.040794,4.188024 c -0.51651,-0.516516 -0.51688,-0.645056 -0.004,-1.377436 0.45316,-0.646968 1.15972,-0.762688 1.65187,-0.27054 0.4584,0.4584 0.39052,1.12191 -0.16635,1.625866 -0.60407,0.54668 -0.95186,0.55187 -1.48162,0.0221 z M 95.163086,95.658856 c -1.35341,-1.67985 -3.26419,-4.86874 -3.19751,-5.33628 0.0919,-0.64441 1.09238,-0.90947 1.65872,-0.43945 0.28442,0.23605 0.394,0.13597 0.53022,-0.48425 0.41133,-1.87278 3.10175,-4.62858 4.37381,-4.48009 0.90074,0.10515 1.02974,1.08433 0.22647,1.71902 -1.24608,0.98458 -2.34268,2.3176 -2.63486,3.20293 -0.36956,1.11978 -0.14305,3.32279 0.43186,4.20021 0.60804,0.92799 0.41354,1.78475 -0.42737,1.8825 -0.37626,0.0437 -0.80886,-0.0753 -0.96134,-0.26459 z m 82.258324,-0.22457 c -0.88834,-0.82761 -1.95288,-3.13838 -3.58989,-7.79245 -0.81896,-2.32833 -1.63133,-4.50898 -1.80525,-4.84587 -0.38527,-0.74629 -0.0247,-1.46425 0.797,-1.58687 0.72085,-0.10756 1.17074,0.79002 2.95898,5.90357 1.57178,4.49455 2.45996,6.42248 3.2438,7.04114 0.40633,0.3207 0.49698,0.59974 0.36527,1.12448 -0.21758,0.86694 -1.1293,0.93914 -1.96991,0.156 z m -26.76907,-4.44335 c -2.06632,-2.06632 -1.58823,-6.55864 1.10688,-10.40078 l 1.08226,-1.54287 -0.47187,-1.25897 c -0.25952,-0.69244 -0.69594,-1.70689 -0.96982,-2.25434 -0.49477,-0.98898 -0.50293,-0.9928 -1.27158,-0.59532 -0.81067,0.41922 -2.82495,0.53432 -3.36302,0.19218 -1.14743,-0.7296 -0.81814,-3.49629 0.41612,-3.49629 0.23872,0 0.55156,-0.26497 0.69521,-0.58882 0.39291,-0.8858 1.92023,-1.79243 3.01956,-1.79243 1.84472,0 2.58026,1.17937 1.8816,3.01698 -0.20554,0.54062 -0.0706,1.1053 0.69789,2.92075 0.52398,1.2378 1.03781,2.19794 1.14186,2.13364 0.10405,-0.0643 0.41505,0.0482 0.69111,0.2501 0.43795,0.32023 0.46214,0.47245 0.18976,1.19407 -0.25052,0.66369 -0.23653,1.00811 0.0708,1.7437 0.63674,1.52393 1.42866,5.19326 1.42445,6.60013 -0.009,2.8863 -1.58073,4.6274 -4.17987,4.62922 -1.19654,8e-4 -1.52299,-0.11258 -2.16136,-0.75095 z m 3.61492,-1.7817 c 0.64851,-0.6485 0.675,-0.78644 0.54621,-2.84427 -0.0744,-1.18949 -0.33935,-2.81381 -0.5887,-3.60959 -0.42783,-1.36539 -0.47537,-1.41755 -0.84393,-0.92604 -2.34212,3.12336 -2.62544,8.06146 -0.46252,8.06146 0.36706,0 0.97409,-0.3067 1.34894,-0.68156 z m -5.08368,-16.02966 c 0.94362,-0.42994 0.87014,-1.00829 -0.11932,-0.93907 -0.43627,0.0305 -0.79346,0.13506 -0.79375,0.23229 -2.6e-4,0.0972 -0.0728,0.36513 -0.16112,0.59532 -0.19052,0.49648 0.15132,0.53195 1.07419,0.11146 z m -24.60781,14.0499 c -0.65203,-0.72048 -0.24576,-1.38686 0.96885,-1.58917 0.99316,-0.16543 2.20812,-0.74454 1.99956,-0.9531 -0.0735,-0.0735 -1.29446,-0.4284 -2.71326,-0.78867 -3.85982,-0.98011 -5.00996,-1.66615 -5.28926,-3.15495 -0.43139,-2.29952 2.04052,-5.11189 4.31121,-4.905 0.57021,0.052 0.89336,0.98963 0.60366,1.7516 -0.21594,0.56798 -0.4101,0.68346 -1.03828,0.61757 -0.87242,-0.0915 -1.87118,0.90248 -1.87118,1.86225 0,0.74782 0.85437,1.13198 4.7625,2.14144 4.03439,1.04207 4.23334,1.14123 4.23334,2.11017 0,0.84564 -1.11099,1.88126 -3.09832,2.88814 -1.40024,0.70943 -2.23943,0.71519 -2.86882,0.0197 z m 11.12651,-4.94373 c -1.62673,-0.18292 -2.21427,-0.61026 -2.9995,-2.18165 -0.76466,-1.53022 -0.74244,-2.38414 0.062,-2.38414 0.18895,0 0.56915,-0.50601 0.8449,-1.12447 0.73047,-1.63835 2.36934,-3.32694 3.42034,-3.52411 1.11456,-0.20909 2.29019,0.33872 2.59658,1.20993 0.53236,1.51374 -1.03319,4.31244 -3.13062,5.59655 l -0.79375,0.48596 0.84246,0.001 c 0.46335,5.3e-4 1.5639,-0.31189 2.44566,-0.6943 1.33393,-0.57851 1.67231,-0.63795 2.01458,-0.35389 1.45322,1.20607 -2.29878,3.30691 -5.3027,2.96913 z m 0.34936,-4.5852 c 1.19481,-0.93984 2.08147,-2.62642 1.38074,-2.62642 -0.38815,0 -1.32023,1.07602 -1.89081,2.18281 -0.58316,1.13118 -0.47909,1.22168 0.51007,0.44361 z m -77.694804,0.84668 c -0.2012,-0.12755 -0.4622,-1.11649 -0.60991,-2.31105 -0.29535,-2.38847 -0.38276,-2.78538 -1.56695,-7.11517 -0.47759,-1.74625 -1.09791,-3.433151 -1.37849,-3.748664 -0.38082,-0.428238 -0.46497,-0.779303 -0.33196,-1.384882 0.2153,-0.980241 -0.73127,-4.445394 -2.12162,-7.766767 -0.83216,-1.98792 -1.046414,-2.292466 -1.662928,-2.363727 -0.610065,-0.07051 -0.719079,-0.219628 -0.790226,-1.080907 -0.07485,-0.90618 0.05207,-1.130525 1.364581,-2.411942 3.321233,-3.24256 7.629363,-3.924781 11.024903,-1.745866 2.26487,1.453364 3.19172,4.367054 2.14318,6.737442 -0.80835,1.827427 -2.65683,4.311582 -5.18551,6.9688 l -2.21558,2.328191 1.16989,4.218532 c 1.37284,4.95036 1.96988,8.86976 1.44708,9.49969 -0.37772,0.45513 -0.7633,0.50798 -1.28646,0.17632 z m 1.83737,-20.364923 c 1.93651,-2.394254 2.61566,-3.691035 2.61438,-4.991907 -10e-4,-1.404157 -0.78982,-2.54581 -2.24448,-3.249999 -1.70984,-0.827719 -4.04276,-0.651208 -5.99878,0.453877 -2.03743,1.151073 -2.06469,1.264854 -0.90869,3.793766 0.83284,1.821971 1.39375,3.405632 2.70443,7.635732 0.14831,0.478647 1.66981,-0.966772 3.83314,-3.641469 z M 160.76642,73.288186 c -0.2773,-0.40018 -1.00812,-1.65033 -1.62405,-2.77812 -0.61593,-1.12779 -1.21785,-2.05052 -1.33761,-2.05052 -0.38491,0 -0.54553,-0.81623 -0.2641,-1.342086 0.3963,-0.740479 1.4375,-0.641241 2.04672,0.195066 l 0.5136,0.70507 0.17587,-0.937429 c 0.36245,-1.932027 2.27335,-2.9821 4.24351,-2.331887 2.33409,0.770319 5.20831,6.061286 3.79181,6.980096 -0.68973,0.44739 -1.24349,-0.0324 -1.8195,-1.57654 -0.27399,-0.7345 -0.9291,-1.83891 -1.45579,-2.45423 -0.80109,-0.935894 -1.09282,-1.105619 -1.78466,-1.038312 -0.80452,0.07827 -0.82926,0.119992 -0.90921,1.533372 -0.0452,0.7991 0.0478,2.19908 0.20656,3.11106 0.32223,1.85034 0.0753,2.71207 -0.77713,2.71207 -0.27601,0 -0.72872,-0.32742 -1.00602,-0.72761 z m -89.181694,-1.09735 c -0.31353,-0.19377 -1.18004,-1.74006 -3.5253,-6.290943 -0.95921,-1.861313 -1.06487,-2.222667 -0.75797,-2.592454 0.61793,-0.744556 1.40907,-0.368612 2.16185,1.027298 l 0.70061,1.299151 0.57439,-1.125905 c 0.71375,-1.399064 2.45138,-3.160316 4.03156,-4.086363 1.21606,-0.71266 1.898,-0.710226 2.17351,0.0078 0.1684,0.438832 -0.26327,1.415584 -0.6256,1.415584 -0.54088,0 -2.95067,2.198762 -3.57226,3.259429 -0.81481,1.390361 -0.8716,2.810033 -0.19005,4.750823 0.26702,0.76035 0.43524,1.53265 0.37382,1.71622 -0.16151,0.48275 -0.96601,0.85336 -1.34456,0.61941 z m 98.532284,-1.50123 c -0.66899,-0.669 -0.3899,-1.96626 0.76002,-3.532781 l 0.94114,-1.282081 -0.68988,-0.452025 c -0.49909,-0.327014 -0.76985,-0.372041 -0.97909,-0.162809 -0.46156,0.461563 -1.46316,0.335021 -1.76157,-0.222557 -1.06795,-1.995476 1.3344,-2.894361 3.7092,-1.387869 1.77878,1.128395 2.17361,1.609379 2.00659,2.444438 -0.11295,0.564761 -0.0315,0.752314 0.37247,0.857962 0.87464,0.228724 0.59841,1.197452 -0.73976,2.594292 -1.45966,1.52366 -2.81171,1.95083 -3.61912,1.14343 z m -86.934524,-3.46152 c -1.80949,-0.593411 -2.38125,-1.621794 -2.38125,-4.283018 0,-1.024445 -0.11906,-1.936213 -0.26458,-2.02615 -0.47152,-0.291415 -0.28066,-1.286216 0.37881,-1.974413 2.83087,-2.954187 2.78637,-2.920379 3.84403,-2.920379 1.39427,0 1.8156,0.200017 2.26924,1.077257 0.54349,1.050999 0.48171,2.254213 -0.17582,3.424131 -0.70976,1.262854 -1.47112,1.672723 -2.86096,1.54018 l -1.09628,-0.104548 0.0773,1.595554 0.0773,1.595551 1.09308,-0.0205 c 0.85924,-0.01611 1.46369,-0.284982 2.82553,-1.256771 0.95285,-0.679939 1.9049,-1.236255 2.11567,-1.236255 0.56287,0 1.04498,0.696804 0.86075,1.244074 -0.1768,0.525195 -2.86525,2.566755 -3.87407,2.941897 -0.92631,0.344458 -2.42866,0.55426 -2.88867,0.40341 z m 2.07135,-8.012693 c 0.2114,-0.60642 0.18629,-0.847818 -0.11416,-1.097166 -0.30987,-0.257165 -0.50817,-0.204163 -1.01398,0.271026 -0.34583,0.324889 -0.68838,0.818615 -0.76122,1.097166 -0.11076,0.423524 0.0109,0.506457 0.74294,0.506457 0.73071,0 0.92019,-0.1285 1.14642,-0.777483 z m 91.546774,6.325658 c -2.02293,-2.259438 -2.37593,-2.864154 -2.03922,-3.493304 0.33204,-0.620422 1.09461,-0.592484 1.68672,0.0618 0.65572,0.724561 0.75622,0.683263 1.2919,-0.530879 0.87529,-1.983904 3.34294,-3.143953 3.55276,-1.670169 0.0556,0.39065 -0.2306,0.863701 -0.88596,1.464297 -1.17849,1.080003 -1.51178,2.768381 -0.81316,4.119351 0.52147,1.008415 0.52128,0.982573 0.0105,1.493293 -0.68996,0.689956 -1.06623,0.496106 -2.8036,-1.444385 z m -33.22025,-2.968487 c -0.33509,-0.432038 -2.52482,-7.35357 -3.2645,-10.31875 -0.55007,-2.205112 -0.80468,-2.648096 -1.17633,-2.04674 -0.40083,0.648549 -2.28163,1.319135 -3.69979,1.319135 -1.83735,0 -2.98801,-0.467786 -3.94332,-1.603097 -0.71063,-0.844537 -0.73474,-0.964681 -0.57803,-2.880247 0.0899,-1.099421 0.16289,-2.356135 0.1621,-2.792697 -0.003,-1.866142 1.20977,-4.024239 2.69351,-4.791511 0.57676,-0.298252 1.28291,-0.392025 2.36351,-0.313862 1.83719,0.13289 3.08448,0.995605 4.32727,2.993041 0.70641,1.135351 0.79872,1.525562 0.8389,3.546115 0.0518,2.604348 0.96996,6.608746 2.88373,12.576868 1.00629,3.138133 1.17414,3.924411 0.90657,4.246816 -0.39974,0.481661 -1.16496,0.514485 -1.51362,0.06493 z m -6.57255,-13.431449 c 0.59164,-0.293158 1.29955,-0.842081 1.57312,-1.21983 0.4937,-0.681699 0.49111,-0.703391 -0.34729,-2.910558 -0.50487,-1.329109 -0.77696,-2.437174 -0.67632,-2.754263 0.13588,-0.428113 -0.0179,-0.608356 -0.7966,-0.933721 -1.0795,-0.451044 -1.83096,-0.316014 -2.70803,0.486608 -0.69371,0.634814 -1.0699,2.208412 -0.63252,2.645788 0.4566,0.456598 0.35504,1.206354 -0.23143,1.708503 -1.0213,0.874466 -0.50656,2.820715 0.84944,3.211764 1.32636,0.382503 1.80028,0.345112 2.96963,-0.234291 z m 50.7481,13.431449 c -0.40128,-0.498253 -2.04213,-3.873074 -2.54065,-5.225521 -0.24138,-0.654844 -0.85392,-3.026968 -1.36121,-5.271387 -0.65534,-2.899505 -1.0757,-4.223647 -1.45215,-4.57437 -0.67946,-0.63301 -0.67711,-1.648633 0.005,-2.33114 1.18475,-1.184752 2.18301,0.63877 3.33469,6.09148 0.81567,3.861901 1.50018,5.959941 2.78201,8.526939 0.56154,1.124556 1.02099,2.098318 1.02099,2.163913 0,0.26193 -0.85286,0.950815 -1.17713,0.950815 -0.19007,0 -0.46544,-0.148828 -0.61194,-0.330729 z M 98.077896,60.944569 c -0.81659,-0.687109 -0.83709,-0.722664 -2.45312,-4.253034 -0.59801,-1.306415 -1.46037,-2.956682 -1.91634,-3.667263 -0.63763,-0.993648 -0.76588,-1.392123 -0.55543,-1.725742 0.51531,-0.816946 1.4617,-0.518536 2.29622,0.724027 0.75935,1.130644 0.78751,1.145336 1.20074,0.62628 0.98565,-1.238092 2.89255,-1.504903 3.911834,-0.547341 0.53097,0.498827 0.61236,0.515008 0.61236,0.121753 0,-0.844579 1.05928,-2.536023 1.84154,-2.940545 1.1899,-0.61532 2.27036,-0.504976 3.18502,0.325276 0.44086,0.400183 1.5611,2.096823 2.48941,3.770313 1.31754,2.375141 1.6321,3.147774 1.43377,3.521586 -0.16528,0.311507 -0.48752,0.450217 -0.922,0.396875 -0.53779,-0.06603 -0.94374,-0.571694 -2.08371,-2.595545 -1.84726,-3.279552 -2.16503,-3.704166 -2.77207,-3.704166 -0.27913,0 -0.65209,0.26789 -0.8288,0.595312 -0.36808,0.681985 -0.33387,3.961794 0.0596,5.718215 0.29575,1.320112 -0.025,1.964703 -0.91331,1.835179 -0.38986,-0.05685 -0.86526,-0.744741 -1.70019,-2.460164 -1.413284,-2.903644 -1.799494,-3.382897 -2.446934,-3.036396 -1.13846,0.609283 -0.81212,2.801864 0.75631,5.081495 0.964844,1.40235 1.065224,2.182971 0.33121,2.575801 -0.679,0.363387 -0.65837,0.368279 -1.52615,-0.361916 z m 96.097294,-0.463465 c -2.09535,-1.146072 -1.29613,-3.601397 1.43902,-4.420867 l 1.09176,-0.3271 -0.54095,-0.75969 c -0.78627,-1.104209 -2.12633,-2.162085 -2.62042,-2.068613 -0.26668,0.05045 -0.45895,0.403752 -0.51062,0.938295 -0.0495,0.512204 -0.28674,0.96648 -0.58925,1.128376 -1.12335,0.6012 -2.12663,-1.781233 -1.23768,-2.939058 0.80781,-1.052142 2.75922,-1.362265 4.12565,-0.655658 1.62327,0.839425 4.18809,4.437533 3.87234,5.43238 -0.095,0.299254 -0.48439,0.602041 -0.88029,0.68448 -2.72428,0.567272 -4.06696,1.176311 -2.59328,1.176311 0.3638,0 0.73504,-0.119063 0.82497,-0.264584 0.2705,-0.437666 1.41869,-0.298042 1.68805,0.205269 0.72857,1.361342 -2.3842,2.792132 -4.0693,1.870459 z M 116.1668,53.57673 c -0.88835,-1.18487 -1.76347,-2.980391 -1.76347,-3.618172 0,-0.576021 0.72078,-1.080143 1.26557,-0.885155 0.18674,0.06684 0.68304,0.802013 1.10289,1.633725 0.41984,0.83171 0.95166,1.668484 1.18182,1.859497 0.49719,0.412636 0.5426,1.110859 0.10096,1.552501 -0.54462,0.544624 -1.21779,0.351208 -1.88777,-0.542396 z m -4.62777,-8.748303 c -0.78895,-0.839797 -0.7398,-1.865654 0.12185,-2.543431 0.38343,-0.301604 0.91502,-0.54837 1.18132,-0.54837 0.61632,0 1.07905,0.821758 0.75297,1.337173 -0.13314,0.21044 -0.2439,0.756833 -0.24613,1.214207 -0.002,0.5114 -0.16519,0.893424 -0.42256,0.992187 -0.64374,0.247027 -0.76941,0.206108 -1.38745,-0.451766 z m 40.03825,-0.416875 c -0.58208,-0.268649 -1.31935,-0.7724 -1.63836,-1.119448 -0.82702,-0.8997 -1.98465,-3.549124 -2.1355,-4.887443 -0.12046,-1.068714 -0.0828,-1.150792 0.6069,-1.323904 1.06972,-0.268482 1.57767,0.171975 1.58979,1.378538 0.0124,1.236882 0.89667,3.015825 1.88581,3.793884 1.02393,0.805421 2.88311,0.671129 3.57425,-0.258174 0.88833,-1.19445 0.90648,-2.449743 0.0596,-4.12352 -0.41549,-0.8212 -1.01605,-1.66385 -1.33458,-1.872556 -1.14559,-0.750626 -0.95856,-1.93522 0.30556,-1.93522 0.83895,0 1.54931,0.673651 2.63409,2.497977 0.81734,1.374574 0.93415,1.789813 0.93035,3.307292 -0.01,3.972342 -3.06767,6.116518 -6.47794,4.542574 z m 11.83937,-4.55956 c -0.76439,-0.29378 -1.51943,-0.776363 -1.67787,-1.072407 -0.74119,-1.384932 0.64016,-3.45116 2.54629,-3.808752 0.50504,-0.09475 0.91825,-0.222198 0.91825,-0.283227 0,-0.285666 -2.20825,-3.989109 -2.6433,-4.433057 -0.45664,-0.465992 -0.52295,-0.470721 -0.92752,-0.06615 -0.23965,0.239648 -0.59731,0.435723 -0.7948,0.435723 -0.61644,0 -1.22309,-0.828118 -1.13885,-1.554618 0.0632,-0.545286 0.30996,-0.773672 1.14935,-1.063888 1.57267,-0.543743 2.78403,0.100014 4.14213,2.201259 1.30862,2.02468 2.54315,4.539271 2.74906,5.599458 0.20922,1.077277 -0.47393,1.815955 -1.45335,1.571492 -1.73789,-0.433776 -2.04766,-0.438162 -2.3833,-0.03374 -0.29522,0.355721 -0.23636,0.456899 0.41193,0.708114 0.416,0.161201 1.29865,0.23107 1.96144,0.155264 1.44639,-0.165427 1.91406,0.07084 1.79463,0.906628 -0.18784,1.314588 -2.28745,1.647479 -4.65409,0.737901 z"
       id="path1468-9"
       sodipodi:nodetypes="sssssssssssssssssscssssscssscssssssssssssscsssccsscsssssssssssssscccsssssssssssccsssscsssssssssssssccsssssssssssssscsssscssssssssccsssssscsssssscssssssssssssssssssssssssscsscsssssscccsccsccccsscccsssssssccsssssssssscsssssssssscscccssscscsssssssssssscsssssssscssssssccssccsssssssssssssssscsssscsssssssssscssssssscsscssscsssssssccsscsssssssssssssssscccssssssssssssscsssssscccsssssccsssssssssssssssssscssscsssscccsscssssssssssssssssssccsscssssssssssssssssssssssscsscsssssssssscccsssssssssssssssss" />
  </g>
</svg>
