<?xml version="1.0" encoding="UTF-8" standalone="no"?>
<svg
   xmlns:dc="http://purl.org/dc/elements/1.1/"
   xmlns:cc="http://creativecommons.org/ns#"
   xmlns:rdf="http://www.w3.org/1999/02/22-rdf-syntax-ns#"
   xmlns:svg="http://www.w3.org/2000/svg"
   xmlns="http://www.w3.org/2000/svg"
   xmlns:sodipodi="http://sodipodi.sourceforge.net/DTD/sodipodi-0.dtd"
   xmlns:inkscape="http://www.inkscape.org/namespaces/inkscape"
   width="105.98584mm"
   height="87.581024mm"
   viewBox="0 0 105.98584 87.581025"
   version="1.1"
   id="svg8"
   inkscape:version="1.0.2-2 (e86c870879, 2021-01-15)"
   sodipodi:docname="multiPlayer_dark.svg">
  <defs
     id="defs2" />
  <sodipodi:namedview
     id="base"
     pagecolor="#ffffff"
     bordercolor="#666666"
     borderopacity="1.0"
     inkscape:pageopacity="0.0"
     inkscape:pageshadow="2"
     inkscape:zoom="0.76434167"
     inkscape:cx="262.87902"
     inkscape:cy="209.50129"
     inkscape:document-units="mm"
     inkscape:current-layer="layer1"
     inkscape:document-rotation="0"
     showgrid="false"
     inkscape:window-width="1406"
     inkscape:window-height="960"
     inkscape:window-x="24"
     inkscape:window-y="0"
     inkscape:window-maximized="0" />
  <metadata
     id="metadata5">
    <rdf:RDF>
      <cc:Work
         rdf:about="">
        <dc:format>image/svg+xml</dc:format>
        <dc:type
           rdf:resource="http://purl.org/dc/dcmitype/StillImage" />
        <dc:title />
      </cc:Work>
    </rdf:RDF>
  </metadata>
  <g
     inkscape:label="Livello 1"
     inkscape:groupmode="layer"
     id="layer1"
     transform="translate(-39.822955,-99.189952)">
    <path
       id="path847-9"
       style="fill:#1a1a1a;fill-opacity:0.85000002;stroke:none;stroke-width:0.264583;stroke-opacity:0.1"
       inkscape:transform-center-x="15.635267"
       inkscape:transform-center-y="-4.2763125"
       d="m 107.55756,100.1138 c -4.37527,-0.008 -5.91837,0.31024 -9.205108,1.90015 -1.001321,0.48437 -1.744324,0.94778 -2.662886,1.72135 0.248208,0.19342 0.512503,0.40327 0.792716,0.63252 3.113951,2.54763 5.733268,6.72341 6.638348,10.58281 0.21723,0.92636 0.37043,2.96487 0.36793,4.89479 -0.004,3.04355 -0.0739,3.51297 -0.88108,5.88595 -1.34601,3.95728 -3.777561,7.23667 -6.905513,9.55187 0.816584,0.6236 1.628582,1.07607 2.944522,1.70429 1.481211,0.70712 3.348201,1.41797 4.148571,1.57975 0.80036,0.16179 1.69334,0.34985 1.98438,0.41754 0.29104,0.0677 1.79414,0.0782 3.34036,0.0233 8.16152,-0.28974 15.07066,-5.47288 17.73432,-13.3041 0.80716,-2.37298 0.8776,-2.84239 0.8816,-5.88594 0.002,-1.92992 -0.15121,-3.96843 -0.36845,-4.89479 -0.90507,-3.85941 -3.5244,-8.03519 -6.63836,-10.58282 -0.97872,-0.80072 -1.86025,-1.45573 -1.95905,-1.45573 -0.0988,0 -0.50612,-0.24107 -0.90486,-0.53588 -0.39874,-0.2948 -1.79276,-0.91678 -3.098,-1.38184 -2.24784,-0.80096 -2.57557,-0.84618 -6.20944,-0.85318 z m 12.18324,42.98136 -1.26298,0.971 c -2.73739,2.10373 -6.51472,3.34192 -10.30014,3.53725 2.80372,1.55431 5.36814,3.41821 7.74423,5.62136 0.73125,0.67803 2.01786,1.85988 2.85926,2.6262 2.78067,2.53251 4.23882,6.63856 3.65197,10.28258 -0.51522,3.19926 -2.7451,6.70972 -5.24257,8.25324 -0.50086,0.30955 -1.28468,0.90468 -1.74202,1.3224 -1.6117,1.47206 -6.41424,4.17994 -10.36835,5.84615 -2.97506,1.25364 -6.119504,2.22932 -9.376164,2.92127 2.287236,0.46985 5.118124,0.92764 6.561864,1.0387 9.17023,0.70542 18.20563,-0.67704 26.06145,-3.98736 3.95411,-1.66621 8.75615,-4.37409 10.36784,-5.84615 0.45735,-0.41772 1.24168,-1.01285 1.74253,-1.3224 2.49749,-1.54352 4.72736,-5.05398 5.24258,-8.25324 0.58685,-3.64401 -0.87182,-7.75007 -3.65249,-10.28258 -0.8414,-0.76632 -2.12801,-1.94817 -2.85926,-2.6262 -4.76663,-4.41969 -10.28939,-7.47592 -16.98656,-9.40046 z"
       sodipodi:nodetypes="csccccccssscccssssccccccscsssscssscssscc" />
    <path
       style="fill:#4d4d4d;fill-opacity:1;stroke:#f3f3f3;stroke-width:2;stroke-miterlimit:4;stroke-dasharray:none;stroke-opacity:0"
       d="m 73.780948,185.59126 c -1.85209,-0.14247 -6.00056,-0.85561 -8.33437,-1.43272 -3.67163,-0.90793 -7.2775,-2.59331 -10.84792,-4.06379 -1.69914,-0.69979 -4.48239,-1.99129 -5.02708,-2.26263 -5.627673,-2.80349 -9.531397,-7.53762 -8.617946,-13.24254 0.149773,-0.9354 0.668321,-2.53417 1.152328,-3.55282 0.484007,-1.01864 1.149105,-2.43671 1.477996,-3.15125 2.706711,-5.88054 10.735842,-11.36871 20.738922,-14.17573 l 2.05129,-0.57563 0.99141,0.77029 c 1.73981,1.35175 3.94508,2.45385 6.24321,3.1201 5.39811,1.56497 12.14047,0.37877 16.38403,-2.88247 l 1.26291,-0.97056 2.44126,0.70152 c 6.697172,1.92453 12.220082,4.98098 16.986712,9.40067 0.73125,0.67803 2.01797,1.85977 2.85937,2.62609 2.78067,2.53251 4.23909,6.6386 3.65224,10.28261 -0.51522,3.19926 -2.74513,6.70971 -5.24261,8.25323 -0.50085,0.30955 -1.28482,0.90457 -1.74216,1.32229 -1.6117,1.47206 -6.41402,4.17984 -10.368132,5.84605 -7.85582,3.31032 -16.89126,4.69271 -26.06146,3.98729 z m 2.51354,-46.53043 c -0.29104,-0.0677 -1.18401,-0.25547 -1.98437,-0.41726 -0.80037,-0.16178 -2.66711,-0.8727 -4.14833,-1.57982 -2.27118,-1.08424 -3.04263,-1.62836 -4.92392,-3.47299 -3.84669,-3.77172 -5.64912,-7.69587 -5.92656,-12.90295 -0.19676,-3.69285 0.35156,-6.44226 1.95236,-9.7896 1.06197,-2.2206 1.51452,-2.82285 3.88311,-5.16758 2.14632,-2.1247 3.08788,-2.85083 4.72085,-3.64074 3.28675,-1.5899 4.82973,-1.90835 9.20499,-1.8998 3.63385,0.007 3.96179,0.0521 6.20961,0.85306 1.30524,0.46506 2.6994,1.08676 3.09814,1.38156 0.39874,0.29481 0.80585,0.53601 0.90468,0.53601 0.0988,0 0.98048,0.65514 1.9592,1.45586 3.11396,2.54763 5.7333,6.72329 6.63837,10.58269 0.21724,0.92636 0.37051,2.96487 0.36801,4.89479 -0.004,3.04355 -0.0742,3.51292 -0.88136,5.8859 -2.66366,7.83122 -9.57282,13.01442 -17.73431,13.30416 -1.54621,0.0549 -3.04943,0.0444 -3.34047,-0.0233 z"
       id="path847"
       sodipodi:nodetypes="ssassssscssscssssssssssssssssssssssccsss" />
  </g>
</svg>
