<?xml version="1.0" encoding="UTF-8" standalone="no"?>
<svg
   xmlns:dc="http://purl.org/dc/elements/1.1/"
   xmlns:cc="http://creativecommons.org/ns#"
   xmlns:rdf="http://www.w3.org/1999/02/22-rdf-syntax-ns#"
   xmlns:svg="http://www.w3.org/2000/svg"
   xmlns="http://www.w3.org/2000/svg"
   xmlns:sodipodi="http://sodipodi.sourceforge.net/DTD/sodipodi-0.dtd"
   xmlns:inkscape="http://www.inkscape.org/namespaces/inkscape"
   version="1.1"
   id="Layer_1"
   x="0px"
   y="0px"
   viewBox="0 0 512 512"
   style="enable-background:new 0 0 512 512;"
   xml:space="preserve"
   sodipodi:docname="flip.svg"
   inkscape:version="1.0.2-2 (e86c870879, 2021-01-15)"><metadata
   id="metadata15"><rdf:RDF><cc:Work
       rdf:about=""><dc:format>image/svg+xml</dc:format><dc:type
         rdf:resource="http://purl.org/dc/dcmitype/StillImage" /></cc:Work></rdf:RDF></metadata><defs
   id="defs13" /><sodipodi:namedview
   pagecolor="#ffffff"
   bordercolor="#666666"
   borderopacity="1"
   objecttolerance="10"
   gridtolerance="10"
   guidetolerance="10"
   inkscape:pageopacity="0"
   inkscape:pageshadow="2"
   inkscape:window-width="1500"
   inkscape:window-height="938"
   id="namedview11"
   showgrid="false"
   inkscape:zoom="0.51513834"
   inkscape:cx="265.30097"
   inkscape:cy="373.83414"
   inkscape:window-x="-6"
   inkscape:window-y="-6"
   inkscape:window-maximized="1"
   inkscape:current-layer="Layer_1" />
<style
   type="text/css"
   id="style2">
	.st0{fill:#231F20;}
</style>
<g
   id="g8"
   style="fill:#ffffff">
	<path
   class="st0"
   d="M104.8,435.1h307l-33.3,33c-10,10-10,26.3,0,36.3c10,10,26.3,10,36.3,0l76.8-76.8c10-10,10.1-26.1,0.1-36.2   l-0.1-0.1l-76.8-76.8c-9.9-10-26.1-10.1-36.2-0.1l-0.1,0.1c-10,9.9-10.1,26.1-0.1,36.2l0.1,0.1l33.3,33h-307   c-22,0.4-40.3-17.1-40.7-39.1v0v-63.2c0-14.1-11.5-25.6-25.6-25.6s-25.6,11.5-25.6,25.6v63.2C13.3,395.1,54.5,435.5,104.8,435.1z"
   id="path4"
   style="fill:#ffffff" />
	<path
   class="st0"
   d="M97.1,197.4c10,10,26.3,10,36.3,0c10-10,10-26.3,0-36.3l-33.3-33h307c22-0.4,40.3,17.1,40.7,39.1v0v63.2   c0,14.1,11.5,25.6,25.6,25.6c14.1,0,25.6-11.5,25.6-25.6v-63.2c-0.4-50.3-41.5-90.7-91.9-90.3h-307l33.3-33   c10-10,10.1-26.1,0.1-36.2l-0.1-0.1c-9.9-10-26.1-10.1-36.2-0.1l-0.1,0.1L20.3,84.3c-10,9.9-10.1,26.1-0.1,36.2l0.1,0.1L97.1,197.4   z"
   id="path6"
   style="fill:#ffffff" />
</g>
</svg>
