<?xml version="1.0" encoding="UTF-8" standalone="no"?>
<svg
   xmlns:dc="http://purl.org/dc/elements/1.1/"
   xmlns:cc="http://creativecommons.org/ns#"
   xmlns:rdf="http://www.w3.org/1999/02/22-rdf-syntax-ns#"
   xmlns:svg="http://www.w3.org/2000/svg"
   xmlns="http://www.w3.org/2000/svg"
   xmlns:sodipodi="http://sodipodi.sourceforge.net/DTD/sodipodi-0.dtd"
   xmlns:inkscape="http://www.inkscape.org/namespaces/inkscape"
   id="bold"
   enable-background="new 0 0 24 24"
   height="133.33333"
   viewBox="0 0 4.6875 6.2499998"
   width="100"
   version="1.1"
   sodipodi:docname="lock.svg"
   inkscape:version="1.0.2-2 (e86c870879, 2021-01-15)">
  <metadata
     id="metadata3811">
    <rdf:RDF>
      <cc:Work
         rdf:about="">
        <dc:format>image/svg+xml</dc:format>
        <dc:type
           rdf:resource="http://purl.org/dc/dcmitype/StillImage" />
      </cc:Work>
    </rdf:RDF>
  </metadata>
  <defs
     id="defs3809" />
  <sodipodi:namedview
     pagecolor="#ffffff"
     bordercolor="#666666"
     borderopacity="1"
     objecttolerance="10"
     gridtolerance="10"
     guidetolerance="10"
     inkscape:pageopacity="0"
     inkscape:pageshadow="2"
     inkscape:window-width="1500"
     inkscape:window-height="938"
     id="namedview3807"
     showgrid="false"
     inkscape:zoom="2.84375"
     inkscape:cx="3.6662889"
     inkscape:cy="78.140411"
     inkscape:window-x="-6"
     inkscape:window-y="-6"
     inkscape:window-maximized="1"
     inkscape:current-layer="bold"
     inkscape:document-rotation="0" />
  <path
     d="M 3.9257813,2.4218749 H 3.75 v -0.703125 c 0,-0.77554688 -0.6307031,-1.40625001 -1.40625,-1.40625001 -0.7755469,0 -1.40624999,0.63070313 -1.40624999,1.40625001 v 0.703125 H 0.76171873 c -0.290625,0 -0.52734372,0.2364844 -0.52734372,0.5273438 v 2.4609375 c 0,0.2908594 0.23671872,0.5273437 0.52734372,0.5273437 H 3.9257813 c 0.290625,0 0.5273437,-0.2364843 0.5273437,-0.5273437 V 2.9492187 c 0,-0.2908594 -0.2367187,-0.5273438 -0.5273437,-0.5273438 z M 1.40625,1.7187499 c 0,-0.5170313 0.4204687,-0.93750001 0.9375,-0.93750001 0.5170313,0 0.9375,0.42046871 0.9375,0.93750001 v 0.703125 h -1.875 z m 1.171875,2.5129688 v 0.5339062 c 0,0.129375 -0.1047656,0.234375 -0.234375,0.234375 -0.1296094,0 -0.234375,-0.105 -0.234375,-0.234375 V 4.2317187 C 1.969922,4.1503905 1.875,4.0008593 1.875,3.8281249 c 0,-0.2585156 0.2102344,-0.46875 0.46875,-0.46875 0.2585156,0 0.46875,0.2102344 0.46875,0.46875 0,0.1727344 -0.094922,0.3222656 -0.234375,0.4035938 z"
     id="path3804"
     style="stroke-width:0.234374;fill:#ffffff;fill-opacity:0.5" />
</svg>
