<?xml version="1.0" encoding="UTF-8" standalone="no"?>
<svg
   xmlns:dc="http://purl.org/dc/elements/1.1/"
   xmlns:cc="http://creativecommons.org/ns#"
   xmlns:rdf="http://www.w3.org/1999/02/22-rdf-syntax-ns#"
   xmlns:svg="http://www.w3.org/2000/svg"
   xmlns="http://www.w3.org/2000/svg"
   xmlns:sodipodi="http://sodipodi.sourceforge.net/DTD/sodipodi-0.dtd"
   xmlns:inkscape="http://www.inkscape.org/namespaces/inkscape"
   id="bold"
   enable-background="new 0 0 24 24"
   height="133.33333"
   viewBox="0 0 4.6875 6.2499998"
   width="100"
   version="1.1"
   sodipodi:docname="lock_open.svg"
   inkscape:version="1.0.2-2 (e86c870879, 2021-01-15)">
  <metadata
     id="metadata3811">
    <rdf:RDF>
      <cc:Work
         rdf:about="">
        <dc:format>image/svg+xml</dc:format>
        <dc:type
           rdf:resource="http://purl.org/dc/dcmitype/StillImage" />
        <dc:title></dc:title>
      </cc:Work>
    </rdf:RDF>
  </metadata>
  <defs
     id="defs3809" />
  <sodipodi:namedview
     pagecolor="#ffffff"
     bordercolor="#666666"
     borderopacity="1"
     objecttolerance="10"
     gridtolerance="10"
     guidetolerance="10"
     inkscape:pageopacity="0"
     inkscape:pageshadow="2"
     inkscape:window-width="1500"
     inkscape:window-height="938"
     id="namedview3807"
     showgrid="false"
     inkscape:zoom="4"
     inkscape:cx="-8.4209225"
     inkscape:cy="88.154904"
     inkscape:window-x="-6"
     inkscape:window-y="-6"
     inkscape:window-maximized="1"
     inkscape:current-layer="bold" />
  <path
     id="path3804"
     style="fill:#ffffff;stroke-width:4.99998;fill-opacity:0.5"
     d="M 50 6.6660156 C 33.567705 6.6660156 20.189399 19.940073 20.007812 36.330078 L 30.007812 36.330078 C 30.188541 25.455168 39.082706 16.666016 50 16.666016 C 61.030001 16.666016 70 25.636015 70 36.666016 L 70 51.666016 L 30 51.666016 L 30 51.664062 L 20 51.664062 L 20 51.666016 L 16.25 51.666016 C 10.05 51.666016 5 56.711015 5 62.916016 L 5 115.41602 C 5 121.62102 10.05 126.66602 16.25 126.66602 L 83.75 126.66602 C 89.95 126.66602 95 121.62102 95 115.41602 L 95 62.916016 C 95 56.711015 89.95 51.666016 83.75 51.666016 L 80 51.666016 L 80 36.666016 C 80 20.121016 66.545 6.6660156 50 6.6660156 z M 50 71.666016 C 55.514999 71.666016 60 76.151016 60 81.666016 C 60 85.351016 57.974997 88.542342 55 90.277344 L 55 101.66602 C 55 104.42602 52.765001 106.66602 50 106.66602 C 47.234999 106.66602 45 104.42602 45 101.66602 L 45 90.277344 C 42.025003 88.542342 40 85.351016 40 81.666016 C 40 76.151016 44.485001 71.666016 50 71.666016 z "
     transform="scale(0.046875)" />
</svg>
