<?xml version="1.0" encoding="UTF-8" standalone="no"?>
<svg
   xmlns:dc="http://purl.org/dc/elements/1.1/"
   xmlns:cc="http://creativecommons.org/ns#"
   xmlns:rdf="http://www.w3.org/1999/02/22-rdf-syntax-ns#"
   xmlns:svg="http://www.w3.org/2000/svg"
   xmlns="http://www.w3.org/2000/svg"
   xmlns:sodipodi="http://sodipodi.sourceforge.net/DTD/sodipodi-0.dtd"
   xmlns:inkscape="http://www.inkscape.org/namespaces/inkscape"
   width="24"
   height="24"
   viewBox="0 0 24 24"
   version="1.1"
   id="svg868"
   sodipodi:docname="trash-can.svg"
   inkscape:version="1.0.2-2 (e86c870879, 2021-01-15)">
  <metadata
     id="metadata874">
    <rdf:RDF>
      <cc:Work
         rdf:about="">
        <dc:format>image/svg+xml</dc:format>
        <dc:type
           rdf:resource="http://purl.org/dc/dcmitype/StillImage" />
      </cc:Work>
    </rdf:RDF>
  </metadata>
  <defs
     id="defs872" />
  <sodipodi:namedview
     pagecolor="#ffffff"
     bordercolor="#666666"
     borderopacity="1"
     objecttolerance="10"
     gridtolerance="10"
     guidetolerance="10"
     inkscape:pageopacity="0"
     inkscape:pageshadow="2"
     inkscape:window-width="1500"
     inkscape:window-height="938"
     id="namedview870"
     showgrid="false"
     inkscape:zoom="15.166667"
     inkscape:cx="-1.2353055"
     inkscape:cy="22.559041"
     inkscape:window-x="-6"
     inkscape:window-y="-6"
     inkscape:window-maximized="1"
     inkscape:current-layer="svg868"
     inkscape:document-rotation="0" />
  <path
     d="m 7.05,8.7 v 9.9 h 9.9 V 8.7 Z m 2.75,7.7 c 0,0.3036 -0.2464,0.55 -0.55,0.55 -0.3036,0 -0.55,-0.2464 -0.55,-0.55 v -5.5 c 0,-0.3036 0.2464,-0.55 0.55,-0.55 0.3036,0 0.55,0.2464 0.55,0.55 z m 2.75,0 c 0,0.3036 -0.2464,0.55 -0.55,0.55 -0.3036,0 -0.55,-0.2464 -0.55,-0.55 v -5.5 c 0,-0.3036 0.2464,-0.55 0.55,-0.55 0.3036,0 0.55,0.2464 0.55,0.55 z m 2.75,0 c 0,0.3036 -0.2464,0.55 -0.55,0.55 -0.3036,0 -0.55,-0.2464 -0.55,-0.55 v -5.5 c 0,-0.3036 0.2464,-0.55 0.55,-0.55 0.3036,0 0.55,0.2464 0.55,0.55 z M 17.5,6.5 V 7.6 H 6.5 V 6.5 h 3.14105 c 0.495,0 0.89705,-0.60445 0.89705,-1.1 h 2.92325 c 0,0.49555 0.4015,1.1 0.89705,1.1 z"
     id="path866"
     style="fill:#f9f9f9;stroke-width:0.55" />
</svg>
